%TF.GenerationSoftware,KiCad,Pcbnew,8.0.7*%
%TF.CreationDate,2024-12-05T12:40:21+01:00*%
%TF.ProjectId,TAITO_PC030CM,54414954-4f5f-4504-9330-3330434d2e6b,rev?*%
%TF.SameCoordinates,Original*%
%TF.FileFunction,Copper,L1,Top*%
%TF.FilePolarity,Positive*%
%FSLAX46Y46*%
G04 Gerber Fmt 4.6, Leading zero omitted, Abs format (unit mm)*
G04 Created by KiCad (PCBNEW 8.0.7) date 2024-12-05 12:40:21*
%MOMM*%
%LPD*%
G01*
G04 APERTURE LIST*
G04 Aperture macros list*
%AMRoundRect*
0 Rectangle with rounded corners*
0 $1 Rounding radius*
0 $2 $3 $4 $5 $6 $7 $8 $9 X,Y pos of 4 corners*
0 Add a 4 corners polygon primitive as box body*
4,1,4,$2,$3,$4,$5,$6,$7,$8,$9,$2,$3,0*
0 Add four circle primitives for the rounded corners*
1,1,$1+$1,$2,$3*
1,1,$1+$1,$4,$5*
1,1,$1+$1,$6,$7*
1,1,$1+$1,$8,$9*
0 Add four rect primitives between the rounded corners*
20,1,$1+$1,$2,$3,$4,$5,0*
20,1,$1+$1,$4,$5,$6,$7,0*
20,1,$1+$1,$6,$7,$8,$9,0*
20,1,$1+$1,$8,$9,$2,$3,0*%
G04 Aperture macros list end*
%TA.AperFunction,SMDPad,CuDef*%
%ADD10RoundRect,0.250000X-1.000000X-0.650000X1.000000X-0.650000X1.000000X0.650000X-1.000000X0.650000X0*%
%TD*%
%TA.AperFunction,SMDPad,CuDef*%
%ADD11RoundRect,0.250000X0.250000X0.475000X-0.250000X0.475000X-0.250000X-0.475000X0.250000X-0.475000X0*%
%TD*%
%TA.AperFunction,SMDPad,CuDef*%
%ADD12RoundRect,0.250000X-0.262500X-0.450000X0.262500X-0.450000X0.262500X0.450000X-0.262500X0.450000X0*%
%TD*%
%TA.AperFunction,SMDPad,CuDef*%
%ADD13RoundRect,0.250000X-0.250000X-0.475000X0.250000X-0.475000X0.250000X0.475000X-0.250000X0.475000X0*%
%TD*%
%TA.AperFunction,SMDPad,CuDef*%
%ADD14RoundRect,0.250000X0.262500X0.450000X-0.262500X0.450000X-0.262500X-0.450000X0.262500X-0.450000X0*%
%TD*%
%TA.AperFunction,SMDPad,CuDef*%
%ADD15RoundRect,0.250000X-0.362500X-1.425000X0.362500X-1.425000X0.362500X1.425000X-0.362500X1.425000X0*%
%TD*%
%TA.AperFunction,ComponentPad*%
%ADD16R,1.700000X1.700000*%
%TD*%
%TA.AperFunction,ComponentPad*%
%ADD17O,1.700000X1.700000*%
%TD*%
%TA.AperFunction,SMDPad,CuDef*%
%ADD18RoundRect,0.250000X-1.425000X0.362500X-1.425000X-0.362500X1.425000X-0.362500X1.425000X0.362500X0*%
%TD*%
%TA.AperFunction,SMDPad,CuDef*%
%ADD19RoundRect,0.250000X1.425000X-0.362500X1.425000X0.362500X-1.425000X0.362500X-1.425000X-0.362500X0*%
%TD*%
%TA.AperFunction,SMDPad,CuDef*%
%ADD20RoundRect,0.250000X1.000000X0.650000X-1.000000X0.650000X-1.000000X-0.650000X1.000000X-0.650000X0*%
%TD*%
%TA.AperFunction,ViaPad*%
%ADD21C,0.600000*%
%TD*%
%TA.AperFunction,Conductor*%
%ADD22C,0.200000*%
%TD*%
%TA.AperFunction,Conductor*%
%ADD23C,0.400000*%
%TD*%
G04 APERTURE END LIST*
D10*
%TO.P,D1,1,K*%
%TO.N,+12V*%
X122392100Y-96327100D03*
%TO.P,D1,2,A*%
%TO.N,/MeterB*%
X126392100Y-96327100D03*
%TD*%
D11*
%TO.P,C3,1*%
%TO.N,Net-(C3-Pad1)*%
X160522100Y-91252100D03*
%TO.P,C3,2*%
%TO.N,GND*%
X158622100Y-91252100D03*
%TD*%
D12*
%TO.P,R2,1*%
%TO.N,GND*%
X149499600Y-91222100D03*
%TO.P,R2,2*%
%TO.N,Net-(R2-Pad2)*%
X151324600Y-91222100D03*
%TD*%
D13*
%TO.P,C4,1*%
%TO.N,Net-(C4-Pad1)*%
X162959600Y-87577100D03*
%TO.P,C4,2*%
%TO.N,GND*%
X164859600Y-87577100D03*
%TD*%
D14*
%TO.P,R4,1*%
%TO.N,Net-(C2-Pad1)*%
X169644600Y-91222100D03*
%TO.P,R4,2*%
%TO.N,/CoinA_in*%
X167819600Y-91222100D03*
%TD*%
D15*
%TO.P,R13,1*%
%TO.N,/MeterB*%
X129879600Y-91467100D03*
%TO.P,R13,2*%
%TO.N,Net-(A2-O3)*%
X135804600Y-91467100D03*
%TD*%
D13*
%TO.P,C6,1*%
%TO.N,+5V*%
X158989600Y-87577100D03*
%TO.P,C6,2*%
%TO.N,GND*%
X160889600Y-87577100D03*
%TD*%
D12*
%TO.P,R5,1*%
%TO.N,/LockB_in*%
X138687100Y-87547100D03*
%TO.P,R5,2*%
%TO.N,+5V*%
X140512100Y-87547100D03*
%TD*%
D10*
%TO.P,D2,1,K*%
%TO.N,+12V*%
X122334600Y-100547100D03*
%TO.P,D2,2,A*%
%TO.N,/MeterA*%
X126334600Y-100547100D03*
%TD*%
%TO.P,ZD4,1,K*%
%TO.N,Net-(A2-I6)*%
X141142100Y-100347100D03*
%TO.P,ZD4,2,A*%
%TO.N,GND*%
X145142100Y-100347100D03*
%TD*%
D16*
%TO.P,J1,1,Pin_1*%
%TO.N,/CoinB_out*%
X121812100Y-104817100D03*
D17*
%TO.P,J1,2,Pin_2*%
%TO.N,+12V*%
X124352100Y-104817100D03*
%TO.P,J1,3,Pin_3*%
%TO.N,/CoinA_out*%
X126892100Y-104817100D03*
%TO.P,J1,4,Pin_4*%
%TO.N,/MeterA*%
X129432100Y-104817100D03*
%TO.P,J1,5,Pin_5*%
%TO.N,/MeterB*%
X131972100Y-104817100D03*
%TO.P,J1,6,Pin_6*%
%TO.N,/LockA_in*%
X134512100Y-104817100D03*
%TO.P,J1,7,Pin_7*%
%TO.N,/LockB_in*%
X137052100Y-104817100D03*
%TO.P,J1,8,Pin_8*%
%TO.N,unconnected-(J1-Pin_8-Pad8)*%
X139592100Y-104817100D03*
%TO.P,J1,9,Pin_9*%
%TO.N,unconnected-(J1-Pin_9-Pad9)*%
X142132100Y-104817100D03*
%TO.P,J1,10,Pin_10*%
%TO.N,unconnected-(J1-Pin_10-Pad10)*%
X144672100Y-104817100D03*
%TO.P,J1,11,Pin_11*%
%TO.N,unconnected-(J1-Pin_11-Pad11)*%
X147212100Y-104817100D03*
%TO.P,J1,12,Pin_12*%
%TO.N,GND*%
X149752100Y-104817100D03*
%TO.P,J1,13,Pin_13*%
%TO.N,unconnected-(J1-Pin_13-Pad13)*%
X152292100Y-104817100D03*
%TO.P,J1,14,Pin_14*%
%TO.N,/2Way*%
X154832100Y-104817100D03*
%TO.P,J1,15,Pin_15*%
%TO.N,/LockAB_out*%
X157372100Y-104817100D03*
%TO.P,J1,16,Pin_16*%
%TO.N,/JPA*%
X159912100Y-104817100D03*
%TO.P,J1,17,Pin_17*%
%TO.N,/CoinA_in*%
X162452100Y-104817100D03*
%TO.P,J1,18,Pin_18*%
%TO.N,/JPB*%
X164992100Y-104817100D03*
%TO.P,J1,19,Pin_19*%
%TO.N,/CoinB_in*%
X167532100Y-104817100D03*
%TO.P,J1,20,Pin_20*%
%TO.N,+5V*%
X170072100Y-104817100D03*
%TD*%
D12*
%TO.P,R8,1*%
%TO.N,GND*%
X154197100Y-95967100D03*
%TO.P,R8,2*%
%TO.N,Net-(R8-Pad2)*%
X156022100Y-95967100D03*
%TD*%
%TO.P,R16,1*%
%TO.N,/CoinA_out*%
X145067100Y-95967100D03*
%TO.P,R16,2*%
%TO.N,+5V*%
X146892100Y-95967100D03*
%TD*%
D18*
%TO.P,R11,1*%
%TO.N,Net-(A2-O1)*%
X136042100Y-95154600D03*
%TO.P,R11,2*%
%TO.N,/MeterA*%
X136042100Y-101079600D03*
%TD*%
D12*
%TO.P,R17,1*%
%TO.N,/LockA_in*%
X140502100Y-95967100D03*
%TO.P,R17,2*%
%TO.N,+5V*%
X142327100Y-95967100D03*
%TD*%
%TO.P,R10,1*%
%TO.N,/CoinB_in*%
X167892100Y-95967100D03*
%TO.P,R10,2*%
%TO.N,Net-(C4-Pad1)*%
X169717100Y-95967100D03*
%TD*%
%TO.P,R7,1*%
%TO.N,/CoinB_out*%
X139309600Y-91222100D03*
%TO.P,R7,2*%
%TO.N,+5V*%
X141134600Y-91222100D03*
%TD*%
D13*
%TO.P,C7,1*%
%TO.N,+5V*%
X133959600Y-87577100D03*
%TO.P,C7,2*%
%TO.N,GND*%
X135859600Y-87577100D03*
%TD*%
D12*
%TO.P,R20,1*%
%TO.N,/MeterB*%
X122472100Y-87147100D03*
%TO.P,R20,2*%
%TO.N,Net-(A2-I6)*%
X124297100Y-87147100D03*
%TD*%
%TO.P,R3,1*%
%TO.N,+5V*%
X163249600Y-91222100D03*
%TO.P,R3,2*%
%TO.N,/CoinA_in*%
X165074600Y-91222100D03*
%TD*%
D13*
%TO.P,C8,1*%
%TO.N,+5V*%
X147059600Y-87577100D03*
%TO.P,C8,2*%
%TO.N,GND*%
X148959600Y-87577100D03*
%TD*%
D12*
%TO.P,R6,1*%
%TO.N,/JPB*%
X142917100Y-87547100D03*
%TO.P,R6,2*%
%TO.N,/LockB_in*%
X144742100Y-87547100D03*
%TD*%
%TO.P,R15,1*%
%TO.N,/MeterA*%
X149632100Y-95967100D03*
%TO.P,R15,2*%
%TO.N,Net-(A2-I5)*%
X151457100Y-95967100D03*
%TD*%
%TO.P,R19,1*%
%TO.N,Net-(A2-I6)*%
X154069600Y-91222100D03*
%TO.P,R19,2*%
%TO.N,Net-(C3-Pad1)*%
X155894600Y-91222100D03*
%TD*%
D10*
%TO.P,ZD3,1,K*%
%TO.N,/JPA*%
X157650400Y-100347100D03*
%TO.P,ZD3,2,A*%
%TO.N,GND*%
X161650400Y-100347100D03*
%TD*%
%TO.P,ZD2,1,K*%
%TO.N,Net-(A2-I5)*%
X149396300Y-100347100D03*
%TO.P,ZD2,2,A*%
%TO.N,GND*%
X153396300Y-100347100D03*
%TD*%
D15*
%TO.P,R14,1*%
%TO.N,/MeterB*%
X121312100Y-91467100D03*
%TO.P,R14,2*%
%TO.N,Net-(A2-O4)*%
X127237100Y-91467100D03*
%TD*%
D14*
%TO.P,R18,1*%
%TO.N,/JPA*%
X160587100Y-95967100D03*
%TO.P,R18,2*%
%TO.N,/LockA_in*%
X158762100Y-95967100D03*
%TD*%
D11*
%TO.P,C2,1*%
%TO.N,Net-(C2-Pad1)*%
X169639600Y-87577100D03*
%TO.P,C2,2*%
%TO.N,GND*%
X167739600Y-87577100D03*
%TD*%
D19*
%TO.P,R12,1*%
%TO.N,/MeterA*%
X131192100Y-101099600D03*
%TO.P,R12,2*%
%TO.N,Net-(A2-O2)*%
X131192100Y-95174600D03*
%TD*%
D14*
%TO.P,R1,1*%
%TO.N,Net-(C1-Pad1)*%
X152609600Y-87547100D03*
%TO.P,R1,2*%
%TO.N,Net-(A2-I5)*%
X150784600Y-87547100D03*
%TD*%
D12*
%TO.P,R9,1*%
%TO.N,/CoinB_in*%
X163327100Y-95967100D03*
%TO.P,R9,2*%
%TO.N,+5V*%
X165152100Y-95967100D03*
%TD*%
D20*
%TO.P,ZD1,1,K*%
%TO.N,/JPB*%
X169859600Y-100347100D03*
%TO.P,ZD1,2,A*%
%TO.N,GND*%
X165859600Y-100347100D03*
%TD*%
D11*
%TO.P,C1,1*%
%TO.N,Net-(C1-Pad1)*%
X156699600Y-87577100D03*
%TO.P,C1,2*%
%TO.N,GND*%
X154799600Y-87577100D03*
%TD*%
D21*
%TO.N,Net-(A2-O2)*%
X132779300Y-97255100D03*
%TO.N,/CoinA_out*%
X129312100Y-93859200D03*
X140221200Y-93859200D03*
%TO.N,Net-(A2-O1)*%
X128042100Y-98726800D03*
%TO.N,+12V*%
X136001500Y-99218800D03*
%TO.N,Net-(A2-O4)*%
X131852100Y-97432000D03*
%TO.N,Net-(A2-I5)*%
X150402200Y-94959700D03*
X149898300Y-88491600D03*
%TO.N,/LockA_in*%
X133165900Y-98858400D03*
%TO.N,/LockB_in*%
X133771900Y-86198000D03*
%TO.N,GND*%
X166512100Y-102243700D03*
X139447900Y-98990100D03*
X137800000Y-85650000D03*
%TO.N,/CoinB_out*%
X142352100Y-102747400D03*
X131852100Y-93252100D03*
%TO.N,Net-(A2-I6)*%
X139377200Y-100347100D03*
X152697100Y-91038300D03*
X135812800Y-85691900D03*
X152800000Y-85250000D03*
%TO.N,Net-(A2-O3)*%
X131972100Y-91467100D03*
%TO.N,Net-(C2-Pad1)*%
X167612100Y-92576300D03*
%TO.N,Net-(C4-Pad1)*%
X165030600Y-92722200D03*
%TO.N,+5V*%
X164836200Y-94547700D03*
X143378600Y-92453600D03*
%TO.N,/MeterB*%
X131217100Y-98033700D03*
%TO.N,/CoinB_in*%
X168718300Y-96954500D03*
%TO.N,/JPA*%
X163954100Y-97634500D03*
%TO.N,/JPB*%
X162330200Y-102920000D03*
X159003400Y-93509500D03*
%TO.N,/CoinA_in*%
X166796500Y-91353700D03*
%TO.N,/LockAB_out*%
X158344900Y-94628500D03*
X149044200Y-94141700D03*
%TO.N,Net-(R2-Pad2)*%
X156800000Y-89230000D03*
X150624600Y-90120100D03*
%TO.N,Net-(R8-Pad2)*%
X150423800Y-98877200D03*
X159741900Y-95019800D03*
%TO.N,Net-(U1-Pad10)*%
X159592784Y-97525059D03*
X155209868Y-97812488D03*
%TO.N,Net-(U1-Pad6)*%
X154871000Y-97087800D03*
X164940000Y-98230000D03*
%TD*%
D22*
%TO.N,Net-(A2-O2)*%
X132779300Y-96761800D02*
X131192100Y-95174600D01*
X132779300Y-97255100D02*
X132779300Y-96761800D01*
%TO.N,/CoinA_out*%
X145067100Y-95967100D02*
X142959200Y-93859200D01*
X142959200Y-93859200D02*
X140221200Y-93859200D01*
X129312100Y-93859200D02*
X140221200Y-93859200D01*
%TO.N,Net-(A2-O1)*%
X136042100Y-95154600D02*
X136018900Y-95154600D01*
X136018900Y-95154600D02*
X132446700Y-98726800D01*
X132446700Y-98726800D02*
X128042100Y-98726800D01*
%TO.N,+12V*%
X132785200Y-99328500D02*
X132916800Y-99460100D01*
X122392100Y-99153000D02*
X122567600Y-99328500D01*
X135760200Y-99460100D02*
X136001500Y-99218800D01*
X122334600Y-99561500D02*
X122567600Y-99328500D01*
X132916800Y-99460100D02*
X135760200Y-99460100D01*
X122567600Y-99328500D02*
X132785200Y-99328500D01*
X124352100Y-104817100D02*
X124352100Y-102564600D01*
X122334600Y-100547100D02*
X122334600Y-99561500D01*
X124352100Y-102564600D02*
X122334600Y-100547100D01*
X122392100Y-96327100D02*
X122392100Y-99153000D01*
%TO.N,Net-(A2-O4)*%
X127237100Y-91467100D02*
X127237100Y-93868800D01*
X130800300Y-97432000D02*
X131852100Y-97432000D01*
X127237100Y-93868800D02*
X130800300Y-97432000D01*
%TO.N,Net-(A2-I5)*%
X150784600Y-87547100D02*
X150784600Y-87605300D01*
X150784600Y-87605300D02*
X149898300Y-88491600D01*
X151457100Y-95967100D02*
X149396300Y-98027900D01*
X149396300Y-98027900D02*
X149396300Y-100347100D01*
X150449700Y-94959700D02*
X150402200Y-94959700D01*
X151457100Y-95967100D02*
X150449700Y-94959700D01*
%TO.N,/LockA_in*%
X148198500Y-96154700D02*
X148198500Y-95834100D01*
X149091800Y-94940800D02*
X149490800Y-94940800D01*
X149490800Y-94940800D02*
X150093300Y-94338300D01*
X150093300Y-94338300D02*
X157133300Y-94338300D01*
X140502100Y-97177800D02*
X140715900Y-97391600D01*
X148198500Y-95834100D02*
X149091800Y-94940800D01*
X157133300Y-94338300D02*
X158762100Y-95967100D01*
X134846500Y-97177800D02*
X140502100Y-97177800D01*
X146961600Y-97391600D02*
X148198500Y-96154700D01*
X140715900Y-97391600D02*
X146961600Y-97391600D01*
X133165900Y-98858400D02*
X134846500Y-97177800D01*
X140502100Y-97177800D02*
X140502100Y-95967100D01*
%TO.N,/LockB_in*%
X134781900Y-88120400D02*
X134781900Y-86851700D01*
X136696300Y-88246800D02*
X136696300Y-88246900D01*
X138687100Y-87547100D02*
X140140600Y-86093600D01*
X136696300Y-88246900D02*
X136296200Y-88647000D01*
X147866500Y-88327900D02*
X147557300Y-88637100D01*
X147557300Y-88637100D02*
X145832100Y-88637100D01*
X145832100Y-88637100D02*
X144742100Y-87547100D01*
X137987400Y-88246800D02*
X136696300Y-88246800D01*
X138687100Y-87547100D02*
X137987400Y-88246800D01*
X140140600Y-86093600D02*
X147122500Y-86093600D01*
X135308500Y-88647000D02*
X134781900Y-88120400D01*
X136296200Y-88647000D02*
X135308500Y-88647000D01*
X147122500Y-86093600D02*
X147866500Y-86837600D01*
X134781900Y-86851700D02*
X134128200Y-86198000D01*
X147866500Y-86837600D02*
X147866500Y-88327900D01*
X134128200Y-86198000D02*
X133771900Y-86198000D01*
D23*
%TO.N,GND*%
X160910000Y-86200000D02*
X163482500Y-86200000D01*
X154197100Y-95967100D02*
X153750000Y-96414200D01*
X154799600Y-86270400D02*
X154870000Y-86200000D01*
X160910000Y-86200000D02*
X160910000Y-86472000D01*
X149752100Y-103665400D02*
X149752100Y-102237900D01*
X148959600Y-87577100D02*
X148959600Y-90682100D01*
X154729200Y-86200000D02*
X154799600Y-86270400D01*
X149752100Y-102237900D02*
X146007900Y-102237900D01*
X153750000Y-98468100D02*
X154197100Y-98915200D01*
X137786700Y-85650000D02*
X137800000Y-85650000D01*
X153396300Y-99716000D02*
X154197100Y-98915200D01*
X160889600Y-86492400D02*
X160889600Y-86220400D01*
X137856400Y-85593600D02*
X137800000Y-85650000D01*
X145142100Y-101372100D02*
X145142100Y-100347100D01*
X163482500Y-86200000D02*
X164859600Y-87577100D01*
X148959600Y-86852100D02*
X147701100Y-85593600D01*
X153396300Y-100347100D02*
X153396300Y-101823700D01*
X145142100Y-100347100D02*
X143785100Y-98990100D01*
X157552100Y-92322100D02*
X158622100Y-91252100D01*
X153750000Y-96414200D02*
X153750000Y-98468100D01*
X154870000Y-86200000D02*
X160910000Y-86200000D01*
X161650400Y-100347100D02*
X165859600Y-100347100D01*
X160910000Y-86472000D02*
X160889600Y-86492400D01*
X153396300Y-100347100D02*
X153396300Y-99716000D01*
X160889600Y-86220400D02*
X160910000Y-86200000D01*
X147701100Y-85593600D02*
X137856400Y-85593600D01*
X154281900Y-99000000D02*
X160303300Y-99000000D01*
X150599600Y-92322100D02*
X157552100Y-92322100D01*
X146007900Y-102237900D02*
X145142100Y-101372100D01*
X153396300Y-101823700D02*
X152982100Y-102237900D01*
X154799600Y-86270400D02*
X154799600Y-87577100D01*
X160303300Y-99000000D02*
X161650400Y-100347100D01*
X167739600Y-87577100D02*
X164859600Y-87577100D01*
X148959600Y-90682100D02*
X149499600Y-91222100D01*
X135859600Y-87577100D02*
X137786700Y-85650000D01*
X148959600Y-87577100D02*
X148959600Y-86852100D01*
X165859600Y-100347100D02*
X165859600Y-101591200D01*
X143785100Y-98990100D02*
X139447900Y-98990100D01*
X154197100Y-98915200D02*
X154281900Y-99000000D01*
X165859600Y-101591200D02*
X166512100Y-102243700D01*
X149499600Y-91222100D02*
X150599600Y-92322100D01*
X152982100Y-102237900D02*
X149752100Y-102237900D01*
X160889600Y-87577100D02*
X160889600Y-86492400D01*
X148959600Y-87577100D02*
X150336700Y-86200000D01*
X150336700Y-86200000D02*
X154729200Y-86200000D01*
X149752100Y-104817100D02*
X149752100Y-103665400D01*
D22*
%TO.N,/CoinB_out*%
X123845000Y-105986200D02*
X129974400Y-105986200D01*
X121812100Y-104817100D02*
X122963800Y-104817100D01*
X139309600Y-91222100D02*
X137080600Y-93451100D01*
X129974400Y-105986200D02*
X130820400Y-105140200D01*
X130820400Y-105140200D02*
X130820400Y-104313600D01*
X122963800Y-104817100D02*
X122963800Y-105105000D01*
X122963800Y-105105000D02*
X123845000Y-105986200D01*
X132386600Y-102747400D02*
X142352100Y-102747400D01*
X137080600Y-93451100D02*
X132051100Y-93451100D01*
X130820400Y-104313600D02*
X132386600Y-102747400D01*
%TO.N,Net-(A2-I6)*%
X152800000Y-85250000D02*
X152414000Y-85007100D01*
X153885800Y-91038300D02*
X154069600Y-91222100D01*
X135715600Y-85594700D02*
X125849500Y-85594700D01*
X141142100Y-100347100D02*
X139377200Y-100347100D01*
X136497600Y-85007100D02*
X135812800Y-85691900D01*
X125849500Y-85594700D02*
X124297100Y-87147100D01*
X152697100Y-91038300D02*
X153885800Y-91038300D01*
X152414000Y-85007100D02*
X136497600Y-85007100D01*
X135812800Y-85691900D02*
X135715600Y-85594700D01*
%TO.N,Net-(A2-O3)*%
X135804600Y-91467100D02*
X131972100Y-91467100D01*
%TO.N,Net-(C1-Pad1)*%
X153677300Y-88614800D02*
X152609600Y-87547100D01*
X156699600Y-87577100D02*
X155661900Y-88614800D01*
X155661900Y-88614800D02*
X153677300Y-88614800D01*
%TO.N,Net-(C2-Pad1)*%
X168290400Y-92576300D02*
X169644600Y-91222100D01*
X167612100Y-92576300D02*
X168290400Y-92576300D01*
X169639600Y-91217100D02*
X169639600Y-87577100D01*
X169644600Y-91222100D02*
X169639600Y-91217100D01*
%TO.N,Net-(C3-Pad1)*%
X156047900Y-91222100D02*
X157430000Y-89840000D01*
X155894600Y-91222100D02*
X156047900Y-91222100D01*
X157430000Y-89840000D02*
X159835000Y-89840000D01*
X160522100Y-90527100D02*
X160522100Y-91252100D01*
X159835000Y-89840000D02*
X160522100Y-90527100D01*
%TO.N,Net-(C4-Pad1)*%
X169717100Y-95967100D02*
X166472200Y-92722200D01*
X164162100Y-88779600D02*
X162959600Y-87577100D01*
X164162100Y-91853700D02*
X164162100Y-88779600D01*
X165030600Y-92722200D02*
X164162100Y-91853700D01*
X166472200Y-92722200D02*
X165030600Y-92722200D01*
%TO.N,+5V*%
X158989600Y-87577100D02*
X160932500Y-89520000D01*
X143337800Y-96977800D02*
X142327100Y-95967100D01*
X148756900Y-93534300D02*
X146892100Y-95399100D01*
X140110400Y-89048700D02*
X140512100Y-88647000D01*
X161547500Y-89520000D02*
X163249600Y-91222100D01*
X141134600Y-90072900D02*
X141134600Y-91222100D01*
X147059600Y-87577100D02*
X145977800Y-86495300D01*
X141563900Y-86495300D02*
X140512100Y-87547100D01*
X135076200Y-89048700D02*
X140110400Y-89048700D01*
X146892100Y-95967100D02*
X145881400Y-96977800D01*
X133959600Y-87932100D02*
X135076200Y-89048700D01*
X141134600Y-91222100D02*
X142147100Y-91222100D01*
X160352000Y-94119700D02*
X158713100Y-94119700D01*
X158713100Y-94119700D02*
X158127700Y-93534300D01*
X133959600Y-87577100D02*
X133959600Y-87932100D01*
X158127700Y-93534300D02*
X148756900Y-93534300D01*
X164836200Y-95651200D02*
X165152100Y-95967100D01*
X140110400Y-89048700D02*
X141134600Y-90072900D01*
X162380100Y-92091600D02*
X164836200Y-94547700D01*
X145881400Y-96977800D02*
X143337800Y-96977800D01*
X162380100Y-92091600D02*
X160352000Y-94119700D01*
X163249600Y-91222100D02*
X162380100Y-92091600D01*
X140512100Y-88647000D02*
X140512100Y-87547100D01*
X160932500Y-89520000D02*
X161547500Y-89520000D01*
X145977800Y-86495300D02*
X141563900Y-86495300D01*
X143378600Y-92453600D02*
X146892100Y-95967100D01*
X142147100Y-91222100D02*
X143378600Y-92453600D01*
X146892100Y-95399100D02*
X146892100Y-95967100D01*
X164836200Y-94547700D02*
X164836200Y-95651200D01*
%TO.N,/MeterB*%
X121422100Y-91357100D02*
X122472100Y-90307100D01*
X122472100Y-89445100D02*
X122472100Y-87147100D01*
X122472100Y-90307100D02*
X122472100Y-89445100D01*
X129879600Y-91467100D02*
X127857600Y-89445100D01*
X128098700Y-98033700D02*
X131217100Y-98033700D01*
X127857600Y-89445100D02*
X122472100Y-89445100D01*
X121312100Y-91467100D02*
X121422100Y-91357100D01*
X126392100Y-96327100D02*
X128098700Y-98033700D01*
X121422100Y-91357100D02*
X126392100Y-96327100D01*
%TO.N,/MeterA*%
X129432100Y-104817100D02*
X129432100Y-101099600D01*
X147212400Y-98386800D02*
X149632100Y-95967100D01*
X129432100Y-101099600D02*
X126887100Y-101099600D01*
X138734900Y-98386800D02*
X147212400Y-98386800D01*
X136042100Y-101079600D02*
X138734900Y-98386800D01*
X136022100Y-101099600D02*
X136042100Y-101079600D01*
X131192100Y-101099600D02*
X136022100Y-101099600D01*
X126887100Y-101099600D02*
X126334600Y-100547100D01*
X131192100Y-101099600D02*
X129432100Y-101099600D01*
%TO.N,/CoinB_in*%
X168718300Y-96954500D02*
X167892100Y-96128300D01*
X163327100Y-95967100D02*
X164377000Y-97017000D01*
X167892100Y-96128300D02*
X167892100Y-95967100D01*
X164377000Y-97017000D02*
X168655800Y-97017000D01*
X168655800Y-97017000D02*
X168718300Y-96954500D01*
%TO.N,/JPA*%
X163954100Y-97634500D02*
X162254500Y-97634500D01*
X162254500Y-97634500D02*
X160587100Y-95967100D01*
X159912100Y-102608800D02*
X157650400Y-100347100D01*
X159912100Y-104817100D02*
X159912100Y-102608800D01*
%TO.N,/JPB*%
X148502600Y-93132600D02*
X142917100Y-87547100D01*
X159003400Y-93509500D02*
X158626500Y-93132600D01*
X166143800Y-103638000D02*
X166143800Y-104817100D01*
X166568700Y-103638000D02*
X166143800Y-103638000D01*
X166143800Y-103638000D02*
X163048200Y-103638000D01*
X164992100Y-104817100D02*
X166143800Y-104817100D01*
X169859600Y-100347100D02*
X166568700Y-103638000D01*
X158626500Y-93132600D02*
X148502600Y-93132600D01*
X163048200Y-103638000D02*
X162330200Y-102920000D01*
%TO.N,/CoinA_in*%
X167819600Y-91222100D02*
X167688000Y-91353700D01*
X165206200Y-91353700D02*
X165074600Y-91222100D01*
X166796500Y-91353700D02*
X165206200Y-91353700D01*
X167688000Y-91353700D02*
X166796500Y-91353700D01*
%TO.N,/LockAB_out*%
X158344900Y-94628500D02*
X157652400Y-93936000D01*
X157652400Y-93936000D02*
X149249900Y-93936000D01*
X149249900Y-93936000D02*
X149044200Y-94141700D01*
%TO.N,Net-(R2-Pad2)*%
X151324600Y-91222100D02*
X151324600Y-90820100D01*
X156800000Y-89230000D02*
X151514700Y-89230000D01*
X151514700Y-89230000D02*
X150624600Y-90120100D01*
X151324600Y-90820100D02*
X150624600Y-90120100D01*
%TO.N,Net-(R8-Pad2)*%
X154989900Y-94934900D02*
X156022100Y-95967100D01*
X152827100Y-95814100D02*
X153706300Y-94934900D01*
X156022100Y-95967100D02*
X157022100Y-96967100D01*
X159276900Y-96967100D02*
X159741900Y-96502100D01*
X157022100Y-96967100D02*
X159276900Y-96967100D01*
X152827100Y-96473900D02*
X152827100Y-95814100D01*
X153706300Y-94934900D02*
X154989900Y-94934900D01*
X150423800Y-98877200D02*
X152827100Y-96473900D01*
X159741900Y-96502100D02*
X159741900Y-95019800D01*
%TO.N,Net-(U1-Pad10)*%
X155497297Y-97525059D02*
X159592784Y-97525059D01*
X155209868Y-97812488D02*
X155497297Y-97525059D01*
%TO.N,Net-(U1-Pad6)*%
X154596100Y-98420000D02*
X164750000Y-98420000D01*
X154347200Y-97611600D02*
X154347200Y-98171100D01*
X154347200Y-98171100D02*
X154596100Y-98420000D01*
X154871000Y-97087800D02*
X154347200Y-97611600D01*
X164750000Y-98420000D02*
X164940000Y-98230000D01*
%TD*%
M02*
