M48
; DRILL file {KiCad 8.0.7} date 2024-12-05T12:40:19+0100
; FORMAT={-:-/ absolute / inch / decimal}
; #@! TF.CreationDate,2024-12-05T12:40:19+01:00
; #@! TF.GenerationSoftware,Kicad,Pcbnew,8.0.7
; #@! TF.FileFunction,Plated,1,2,PTH
FMAT,2
INCH
; #@! TA.AperFunction,Plated,PTH,ViaDrill
T1C0.0118
; #@! TA.AperFunction,Plated,PTH,ComponentDrill
T2C0.0394
%
G90
G05
T1
X5.041Y-3.8869
X5.091Y-3.6952
X5.166Y-3.8596
X5.191Y-3.6713
X5.191Y-3.8359
X5.1958Y-3.6011
X5.2275Y-3.8289
X5.2428Y-3.8921
X5.2666Y-3.3936
X5.347Y-3.3737
X5.3544Y-3.9063
X5.4252Y-3.372
X5.4873Y-3.9507
X5.4901Y-3.8972
X5.5205Y-3.6952
X5.6044Y-4.0452
X5.6448Y-3.6399
X5.8679Y-3.7064
X5.9015Y-3.4839
X5.9213Y-3.7386
X5.9222Y-3.8928
X5.9301Y-3.548
X6.0117Y-3.5842
X6.0157Y-3.3563
X6.0973Y-3.8224
X6.1106Y-3.8509
X6.1732Y-3.513
X6.2341Y-3.7255
X6.26Y-3.6815
X6.2832Y-3.8396
X6.2891Y-3.7409
X6.391Y-4.052
X6.4549Y-3.8439
X6.4896Y-3.7224
X6.4937Y-3.8673
X6.4973Y-3.6505
X6.5556Y-4.0253
X6.5668Y-3.5966
X6.5989Y-3.6447
X6.6425Y-3.8171
T2
X4.7958Y-4.1267
X4.8958Y-4.1267
X4.9958Y-4.1267
X5.0958Y-4.1267
X5.1958Y-4.1267
X5.2958Y-4.1267
X5.3958Y-4.1267
X5.4958Y-4.1267
X5.5958Y-4.1267
X5.6958Y-4.1267
X5.7958Y-4.1267
X5.8958Y-4.1267
X5.9958Y-4.1267
X6.0958Y-4.1267
X6.1958Y-4.1267
X6.2958Y-4.1267
X6.3958Y-4.1267
X6.4958Y-4.1267
X6.5958Y-4.1267
X6.6958Y-4.1267
M30
