%TF.GenerationSoftware,KiCad,Pcbnew,8.0.7*%
%TF.CreationDate,2024-12-05T12:40:21+01:00*%
%TF.ProjectId,TAITO_PC030CM,54414954-4f5f-4504-9330-3330434d2e6b,rev?*%
%TF.SameCoordinates,Original*%
%TF.FileFunction,Copper,L2,Bot*%
%TF.FilePolarity,Positive*%
%FSLAX46Y46*%
G04 Gerber Fmt 4.6, Leading zero omitted, Abs format (unit mm)*
G04 Created by KiCad (PCBNEW 8.0.7) date 2024-12-05 12:40:21*
%MOMM*%
%LPD*%
G01*
G04 APERTURE LIST*
G04 Aperture macros list*
%AMRoundRect*
0 Rectangle with rounded corners*
0 $1 Rounding radius*
0 $2 $3 $4 $5 $6 $7 $8 $9 X,Y pos of 4 corners*
0 Add a 4 corners polygon primitive as box body*
4,1,4,$2,$3,$4,$5,$6,$7,$8,$9,$2,$3,0*
0 Add four circle primitives for the rounded corners*
1,1,$1+$1,$2,$3*
1,1,$1+$1,$4,$5*
1,1,$1+$1,$6,$7*
1,1,$1+$1,$8,$9*
0 Add four rect primitives between the rounded corners*
20,1,$1+$1,$2,$3,$4,$5,0*
20,1,$1+$1,$4,$5,$6,$7,0*
20,1,$1+$1,$6,$7,$8,$9,0*
20,1,$1+$1,$8,$9,$2,$3,0*%
G04 Aperture macros list end*
%TA.AperFunction,ComponentPad*%
%ADD10R,1.700000X1.700000*%
%TD*%
%TA.AperFunction,ComponentPad*%
%ADD11O,1.700000X1.700000*%
%TD*%
%TA.AperFunction,SMDPad,CuDef*%
%ADD12RoundRect,0.150000X0.825000X0.150000X-0.825000X0.150000X-0.825000X-0.150000X0.825000X-0.150000X0*%
%TD*%
%TA.AperFunction,SMDPad,CuDef*%
%ADD13RoundRect,0.150000X-0.150000X0.825000X-0.150000X-0.825000X0.150000X-0.825000X0.150000X0.825000X0*%
%TD*%
%TA.AperFunction,ViaPad*%
%ADD14C,0.600000*%
%TD*%
%TA.AperFunction,Conductor*%
%ADD15C,0.200000*%
%TD*%
%TA.AperFunction,Conductor*%
%ADD16C,0.400000*%
%TD*%
G04 APERTURE END LIST*
D10*
%TO.P,J1,1,Pin_1*%
%TO.N,/CoinB_out*%
X121812100Y-104817100D03*
D11*
%TO.P,J1,2,Pin_2*%
%TO.N,+12V*%
X124352100Y-104817100D03*
%TO.P,J1,3,Pin_3*%
%TO.N,/CoinA_out*%
X126892100Y-104817100D03*
%TO.P,J1,4,Pin_4*%
%TO.N,/MeterA*%
X129432100Y-104817100D03*
%TO.P,J1,5,Pin_5*%
%TO.N,/MeterB*%
X131972100Y-104817100D03*
%TO.P,J1,6,Pin_6*%
%TO.N,/LockA_in*%
X134512100Y-104817100D03*
%TO.P,J1,7,Pin_7*%
%TO.N,/LockB_in*%
X137052100Y-104817100D03*
%TO.P,J1,8,Pin_8*%
%TO.N,unconnected-(J1-Pin_8-Pad8)*%
X139592100Y-104817100D03*
%TO.P,J1,9,Pin_9*%
%TO.N,unconnected-(J1-Pin_9-Pad9)*%
X142132100Y-104817100D03*
%TO.P,J1,10,Pin_10*%
%TO.N,unconnected-(J1-Pin_10-Pad10)*%
X144672100Y-104817100D03*
%TO.P,J1,11,Pin_11*%
%TO.N,unconnected-(J1-Pin_11-Pad11)*%
X147212100Y-104817100D03*
%TO.P,J1,12,Pin_12*%
%TO.N,GND*%
X149752100Y-104817100D03*
%TO.P,J1,13,Pin_13*%
%TO.N,unconnected-(J1-Pin_13-Pad13)*%
X152292100Y-104817100D03*
%TO.P,J1,14,Pin_14*%
%TO.N,/2Way*%
X154832100Y-104817100D03*
%TO.P,J1,15,Pin_15*%
%TO.N,/LockAB_out*%
X157372100Y-104817100D03*
%TO.P,J1,16,Pin_16*%
%TO.N,/JPA*%
X159912100Y-104817100D03*
%TO.P,J1,17,Pin_17*%
%TO.N,/CoinA_in*%
X162452100Y-104817100D03*
%TO.P,J1,18,Pin_18*%
%TO.N,/JPB*%
X164992100Y-104817100D03*
%TO.P,J1,19,Pin_19*%
%TO.N,/CoinB_in*%
X167532100Y-104817100D03*
%TO.P,J1,20,Pin_20*%
%TO.N,+5V*%
X170072100Y-104817100D03*
%TD*%
D12*
%TO.P,U3,1*%
%TO.N,/LockAB_out*%
X156852100Y-93757100D03*
%TO.P,U3,2*%
%TO.N,/2Way*%
X156852100Y-95027100D03*
%TO.P,U3,3*%
%TO.N,Net-(U3-Pad3)*%
X156852100Y-96297100D03*
%TO.P,U3,4*%
%TO.N,unconnected-(U3-Pad4)*%
X156852100Y-97567100D03*
%TO.P,U3,5*%
%TO.N,unconnected-(U3-Pad5)*%
X156852100Y-98837100D03*
%TO.P,U3,6*%
%TO.N,unconnected-(U3-Pad6)*%
X156852100Y-100107100D03*
%TO.P,U3,7,GND*%
%TO.N,GND*%
X156852100Y-101377100D03*
%TO.P,U3,8*%
%TO.N,Net-(U3-Pad8)*%
X151902100Y-101377100D03*
%TO.P,U3,9*%
%TO.N,Net-(R8-Pad2)*%
X151902100Y-100107100D03*
%TO.P,U3,10*%
%TO.N,Net-(U1-Pad10)*%
X151902100Y-98837100D03*
%TO.P,U3,11*%
%TO.N,Net-(U3-Pad11)*%
X151902100Y-97567100D03*
%TO.P,U3,12*%
%TO.N,Net-(U1-Pad6)*%
X151902100Y-96297100D03*
%TO.P,U3,13*%
%TO.N,Net-(R2-Pad2)*%
X151902100Y-95027100D03*
%TO.P,U3,14,VCC*%
%TO.N,+5V*%
X151902100Y-93757100D03*
%TD*%
%TO.P,U4,1*%
%TO.N,/LockAB_out*%
X147302100Y-93607100D03*
%TO.P,U4,2*%
%TO.N,Net-(A2-I5)*%
X147302100Y-94877100D03*
%TO.P,U4,3*%
%TO.N,Net-(U3-Pad3)*%
X147302100Y-96147100D03*
%TO.P,U4,4*%
%TO.N,Net-(A2-I6)*%
X147302100Y-97417100D03*
%TO.P,U4,5*%
%TO.N,unconnected-(U4-Pad5)*%
X147302100Y-98687100D03*
%TO.P,U4,6*%
%TO.N,unconnected-(U4-Pad6)*%
X147302100Y-99957100D03*
%TO.P,U4,7,GND*%
%TO.N,GND*%
X147302100Y-101227100D03*
%TO.P,U4,8*%
%TO.N,/CoinB_out*%
X142352100Y-101227100D03*
%TO.P,U4,9*%
%TO.N,Net-(U3-Pad8)*%
X142352100Y-99957100D03*
%TO.P,U4,10*%
%TO.N,/CoinA_out*%
X142352100Y-98687100D03*
%TO.P,U4,11*%
%TO.N,Net-(U3-Pad11)*%
X142352100Y-97417100D03*
%TO.P,U4,12*%
%TO.N,unconnected-(U4-Pad12)*%
X142352100Y-96147100D03*
%TO.P,U4,13*%
%TO.N,unconnected-(U4-Pad13)*%
X142352100Y-94877100D03*
%TO.P,U4,14,VCC*%
%TO.N,+5V*%
X142352100Y-93607100D03*
%TD*%
D13*
%TO.P,A2,1,I1*%
%TO.N,/CoinA_out*%
X128042100Y-95762100D03*
%TO.P,A2,2,I2*%
X129312100Y-95762100D03*
%TO.P,A2,3,I3*%
%TO.N,/CoinB_out*%
X130582100Y-95762100D03*
%TO.P,A2,4,I4*%
X131852100Y-95762100D03*
%TO.P,A2,5,I5*%
%TO.N,Net-(A2-I5)*%
X133122100Y-95762100D03*
%TO.P,A2,6,I6*%
%TO.N,Net-(A2-I6)*%
X134392100Y-95762100D03*
%TO.P,A2,7,I7*%
%TO.N,unconnected-(A2-I7-Pad7)*%
X135662100Y-95762100D03*
%TO.P,A2,8,GND*%
%TO.N,GND*%
X136932100Y-95762100D03*
%TO.P,A2,9,COM*%
%TO.N,+12V*%
X136932100Y-100712100D03*
%TO.P,A2,10,O7*%
%TO.N,unconnected-(A2-O7-Pad10)*%
X135662100Y-100712100D03*
%TO.P,A2,11,O6*%
%TO.N,/LockB_in*%
X134392100Y-100712100D03*
%TO.P,A2,12,O5*%
%TO.N,/LockA_in*%
X133122100Y-100712100D03*
%TO.P,A2,13,O4*%
%TO.N,Net-(A2-O4)*%
X131852100Y-100712100D03*
%TO.P,A2,14,O3*%
%TO.N,Net-(A2-O3)*%
X130582100Y-100712100D03*
%TO.P,A2,15,O2*%
%TO.N,Net-(A2-O2)*%
X129312100Y-100712100D03*
%TO.P,A2,16,O1*%
%TO.N,Net-(A2-O1)*%
X128042100Y-100712100D03*
%TD*%
D12*
%TO.P,U1,1*%
%TO.N,Net-(C2-Pad1)*%
X166512100Y-93807100D03*
%TO.P,U1,2*%
%TO.N,Net-(R2-Pad2)*%
X166512100Y-95077100D03*
%TO.P,U1,3*%
%TO.N,unconnected-(U1-Pad3)*%
X166512100Y-96347100D03*
%TO.P,U1,4*%
%TO.N,unconnected-(U1-Pad4)*%
X166512100Y-97617100D03*
%TO.P,U1,5*%
%TO.N,/JPA*%
X166512100Y-98887100D03*
%TO.P,U1,6*%
%TO.N,Net-(U1-Pad6)*%
X166512100Y-100157100D03*
%TO.P,U1,7,GND*%
%TO.N,GND*%
X166512100Y-101427100D03*
%TO.P,U1,8*%
%TO.N,unconnected-(U1-Pad8)*%
X161562100Y-101427100D03*
%TO.P,U1,9*%
%TO.N,unconnected-(U1-Pad9)*%
X161562100Y-100157100D03*
%TO.P,U1,10*%
%TO.N,Net-(U1-Pad10)*%
X161562100Y-98887100D03*
%TO.P,U1,11*%
%TO.N,/JPB*%
X161562100Y-97617100D03*
%TO.P,U1,12*%
%TO.N,Net-(R8-Pad2)*%
X161562100Y-96347100D03*
%TO.P,U1,13*%
%TO.N,Net-(C4-Pad1)*%
X161562100Y-95077100D03*
%TO.P,U1,14,VCC*%
%TO.N,+5V*%
X161562100Y-93807100D03*
%TD*%
D14*
%TO.N,Net-(A2-O2)*%
X132779300Y-97255100D03*
%TO.N,/CoinA_out*%
X129312100Y-93859200D03*
X140221200Y-93859200D03*
%TO.N,Net-(A2-O1)*%
X128042100Y-98726800D03*
%TO.N,+12V*%
X136001500Y-99218800D03*
%TO.N,Net-(A2-O4)*%
X131852100Y-97432000D03*
%TO.N,Net-(A2-I5)*%
X150402200Y-94959700D03*
X149898300Y-88491600D03*
%TO.N,/LockA_in*%
X133165900Y-98858400D03*
%TO.N,/LockB_in*%
X133771900Y-86198000D03*
%TO.N,GND*%
X166512100Y-102243700D03*
X139447900Y-98990100D03*
X137800000Y-85650000D03*
%TO.N,/CoinB_out*%
X142352100Y-102747400D03*
X131852100Y-93252100D03*
%TO.N,Net-(A2-I6)*%
X139377200Y-100347100D03*
X152697100Y-91038300D03*
X135812800Y-85691900D03*
X152800000Y-85250000D03*
%TO.N,Net-(A2-O3)*%
X131972100Y-91467100D03*
%TO.N,Net-(C2-Pad1)*%
X167612100Y-92576300D03*
%TO.N,Net-(C4-Pad1)*%
X165030600Y-92722200D03*
%TO.N,+5V*%
X164836200Y-94547700D03*
X143378600Y-92453600D03*
%TO.N,/MeterB*%
X131217100Y-98033700D03*
%TO.N,/CoinB_in*%
X168718300Y-96954500D03*
%TO.N,/JPA*%
X163954100Y-97634500D03*
%TO.N,/JPB*%
X162330200Y-102920000D03*
X159003400Y-93509500D03*
%TO.N,/CoinA_in*%
X166796500Y-91353700D03*
%TO.N,/LockAB_out*%
X158344900Y-94628500D03*
X149044200Y-94141700D03*
%TO.N,Net-(R2-Pad2)*%
X156800000Y-89230000D03*
X150624600Y-90120100D03*
%TO.N,Net-(R8-Pad2)*%
X150423800Y-98877200D03*
X159741900Y-95019800D03*
%TO.N,Net-(U1-Pad10)*%
X159592784Y-97525059D03*
X155209868Y-97812488D03*
%TO.N,Net-(U1-Pad6)*%
X154871000Y-97087800D03*
X164940000Y-98230000D03*
%TD*%
D15*
%TO.N,Net-(A2-O2)*%
X132487100Y-102764300D02*
X133123800Y-103401000D01*
X132487100Y-97547300D02*
X132487100Y-102764300D01*
X133123800Y-103401000D02*
X133123800Y-105369100D01*
X133123800Y-105369100D02*
X132512600Y-105980300D01*
X132512600Y-105980300D02*
X131452900Y-105980300D01*
X130702100Y-105229500D02*
X130702100Y-103147800D01*
X130702100Y-103147800D02*
X129312100Y-101757800D01*
X131452900Y-105980300D02*
X130702100Y-105229500D01*
X132779300Y-97255100D02*
X132487100Y-97547300D01*
X129312100Y-101757800D02*
X129312100Y-100712100D01*
%TO.N,/CoinA_out*%
X141938800Y-98687100D02*
X140221200Y-96969500D01*
X129312100Y-95762100D02*
X129312100Y-93859200D01*
X126893600Y-96910600D02*
X128042100Y-95762100D01*
X129312100Y-95762100D02*
X128042100Y-95762100D01*
X126893600Y-97398700D02*
X126893600Y-96910600D01*
X126892100Y-97400200D02*
X126893600Y-97398700D01*
X142352100Y-98687100D02*
X141938800Y-98687100D01*
X126892100Y-104817100D02*
X126892100Y-97400200D01*
X140221200Y-96969500D02*
X140221200Y-93859200D01*
%TO.N,Net-(A2-O1)*%
X128042100Y-100712100D02*
X128042100Y-98726800D01*
%TO.N,+12V*%
X136932100Y-100149400D02*
X136001500Y-99218800D01*
X136932100Y-100712100D02*
X136932100Y-100149400D01*
%TO.N,Net-(A2-O4)*%
X131852100Y-100712100D02*
X131852100Y-97432000D01*
%TO.N,Net-(A2-I5)*%
X146667100Y-94242100D02*
X147302100Y-94877100D01*
X150319600Y-94877100D02*
X150402200Y-94959700D01*
X138516339Y-85007100D02*
X140857200Y-87347961D01*
X149898300Y-94877100D02*
X150319600Y-94877100D01*
X141300600Y-94242100D02*
X146667100Y-94242100D01*
X147302100Y-94877100D02*
X148928800Y-94877100D01*
X149554500Y-94877100D02*
X149898300Y-94877100D01*
X149490800Y-94940800D02*
X149554500Y-94877100D01*
X148928800Y-94877100D02*
X148992500Y-94940800D01*
X134066900Y-85007100D02*
X138516339Y-85007100D01*
X133122100Y-95762100D02*
X133122100Y-85951900D01*
X148992500Y-94940800D02*
X149490800Y-94940800D01*
X140857200Y-93798700D02*
X141300600Y-94242100D01*
X133122100Y-85951900D02*
X134066900Y-85007100D01*
X149898300Y-88491600D02*
X149898300Y-94877100D01*
X140857200Y-87347961D02*
X140857200Y-93798700D01*
%TO.N,/LockA_in*%
X133122100Y-100712100D02*
X133165900Y-100668300D01*
X133122100Y-102275400D02*
X134512100Y-103665400D01*
X133122100Y-100712100D02*
X133122100Y-102275400D01*
X134512100Y-104817100D02*
X134512100Y-103665400D01*
X133165900Y-100668300D02*
X133165900Y-98858400D01*
%TO.N,/LockB_in*%
X136970400Y-103665400D02*
X137052100Y-103665400D01*
X133771900Y-100091900D02*
X133771900Y-86198000D01*
X134392100Y-101087100D02*
X136970400Y-103665400D01*
X137052100Y-104817100D02*
X137052100Y-103665400D01*
X134392100Y-100712100D02*
X133771900Y-100091900D01*
X134392100Y-100712100D02*
X134392100Y-101087100D01*
D16*
%TO.N,GND*%
X155079200Y-103150000D02*
X156852100Y-101377100D01*
X149752100Y-103665400D02*
X150267500Y-103150000D01*
X166512100Y-101427100D02*
X166512100Y-102243700D01*
X136932100Y-95762100D02*
X139447900Y-98277900D01*
X136932100Y-95762100D02*
X136932100Y-86517900D01*
X139447900Y-98277900D02*
X139447900Y-98990100D01*
X147302100Y-101227100D02*
X149740400Y-103665400D01*
X149740400Y-103665400D02*
X149752100Y-103665400D01*
X136932100Y-86517900D02*
X137800000Y-85650000D01*
X149752100Y-104817100D02*
X149752100Y-103665400D01*
X150267500Y-103150000D02*
X155079200Y-103150000D01*
D15*
%TO.N,/CoinB_out*%
X132051100Y-93451100D02*
X132250100Y-93252100D01*
X142352100Y-101227100D02*
X142352100Y-102747400D01*
X121812100Y-100358500D02*
X131348500Y-90822100D01*
X131852100Y-95762100D02*
X130582100Y-95762100D01*
X131852100Y-95762100D02*
X131852100Y-93252100D01*
X132194700Y-90822100D02*
X132580900Y-91208300D01*
X131348500Y-90822100D02*
X132194700Y-90822100D01*
X121812100Y-104817100D02*
X121812100Y-100358500D01*
X132580900Y-91208300D02*
X132580900Y-92523300D01*
X132580900Y-92523300D02*
X131852100Y-93252100D01*
%TO.N,Net-(A2-I6)*%
X145298500Y-97417100D02*
X147302100Y-97417100D01*
X143393500Y-99322100D02*
X145298500Y-97417100D01*
X152697100Y-91038300D02*
X152800000Y-85250000D01*
X134392100Y-96117700D02*
X137866200Y-99591800D01*
X139377200Y-99591800D02*
X139377200Y-100347100D01*
X139377200Y-99591800D02*
X139697100Y-99591800D01*
X134392100Y-87112600D02*
X135812800Y-85691900D01*
X134392100Y-95762100D02*
X134392100Y-96117700D01*
X139966800Y-99322100D02*
X143393500Y-99322100D01*
X139697100Y-99591800D02*
X139966800Y-99322100D01*
X137866200Y-99591800D02*
X139377200Y-99591800D01*
X134392100Y-95762100D02*
X134392100Y-87112600D01*
%TO.N,Net-(A2-O3)*%
X129947100Y-93492100D02*
X131972100Y-91467100D01*
X129947100Y-100077100D02*
X129947100Y-93492100D01*
X130582100Y-100712100D02*
X129947100Y-100077100D01*
%TO.N,Net-(C2-Pad1)*%
X167612100Y-92707100D02*
X167612100Y-92576300D01*
X166512100Y-93807100D02*
X167612100Y-92707100D01*
%TO.N,Net-(C4-Pad1)*%
X162675700Y-95077100D02*
X165030600Y-92722200D01*
X161562100Y-95077100D02*
X162675700Y-95077100D01*
%TO.N,+5V*%
X143378600Y-92580600D02*
X143378600Y-92453600D01*
X147955100Y-87877100D02*
X143378600Y-92453600D01*
X170072100Y-97425400D02*
X170072100Y-104817100D01*
X161562100Y-93807100D02*
X160651900Y-92896900D01*
X164836200Y-95066100D02*
X165511500Y-95741400D01*
X151902100Y-89642800D02*
X150136400Y-87877100D01*
X151902100Y-93757100D02*
X151902100Y-89642800D01*
X152762300Y-92896900D02*
X151902100Y-93757100D01*
X168388100Y-95741400D02*
X170072100Y-97425400D01*
X160651900Y-92896900D02*
X152762300Y-92896900D01*
X164836200Y-94547700D02*
X164836200Y-95066100D01*
X142352100Y-93607100D02*
X143378600Y-92580600D01*
X165511500Y-95741400D02*
X168388100Y-95741400D01*
X150136400Y-87877100D02*
X147955100Y-87877100D01*
%TO.N,/MeterB*%
X131217100Y-102910400D02*
X131217100Y-98033700D01*
X131972100Y-104817100D02*
X131972100Y-103665400D01*
X131972100Y-103665400D02*
X131217100Y-102910400D01*
%TO.N,/2Way*%
X156852100Y-95027100D02*
X157212700Y-95027100D01*
X158172500Y-101716100D02*
X155983800Y-103904800D01*
X154832100Y-104817100D02*
X155983800Y-104817100D01*
X158172500Y-95986900D02*
X158172500Y-101716100D01*
X157212700Y-95027100D02*
X158172500Y-95986900D01*
X155983800Y-103904800D02*
X155983800Y-104817100D01*
%TO.N,/CoinB_in*%
X167532100Y-103665400D02*
X168718300Y-102479200D01*
X167532100Y-104817100D02*
X167532100Y-103665400D01*
X168718300Y-102479200D02*
X168718300Y-96954500D01*
%TO.N,/JPA*%
X166287700Y-99111500D02*
X166512100Y-98887100D01*
X161063800Y-104817100D02*
X161063800Y-105085600D01*
X159912100Y-104817100D02*
X161063800Y-104817100D01*
X163954100Y-99111500D02*
X163954100Y-97634500D01*
X163732900Y-105218700D02*
X163732900Y-99332700D01*
X163732900Y-99332700D02*
X163954100Y-99111500D01*
X161975800Y-105997600D02*
X162954000Y-105997600D01*
X162954000Y-105997600D02*
X163732900Y-105218700D01*
X163954100Y-99111500D02*
X166287700Y-99111500D01*
X161063800Y-105085600D02*
X161975800Y-105997600D01*
%TO.N,/JPB*%
X161562100Y-97617100D02*
X161151500Y-97617100D01*
X161562100Y-97617100D02*
X161906800Y-97617100D01*
X162873100Y-98583400D02*
X162873100Y-102377100D01*
X162873100Y-102377100D02*
X162330200Y-102920000D01*
X161151500Y-97617100D02*
X159003400Y-95469000D01*
X159003400Y-95469000D02*
X159003400Y-93509500D01*
X161906800Y-97617100D02*
X162873100Y-98583400D01*
%TO.N,/CoinA_in*%
X164587100Y-93946000D02*
X163331200Y-95201900D01*
X163331200Y-102786300D02*
X162452100Y-103665400D01*
X164657700Y-93946000D02*
X164587100Y-93946000D01*
X163331200Y-95201900D02*
X163331200Y-102786300D01*
X166796500Y-91353700D02*
X166796500Y-91807200D01*
X166796500Y-91807200D02*
X164657700Y-93946000D01*
X162452100Y-104817100D02*
X162452100Y-103665400D01*
%TO.N,/LockAB_out*%
X158586600Y-94870200D02*
X158344900Y-94628500D01*
X147302100Y-93607100D02*
X148509600Y-93607100D01*
X157372100Y-103665400D02*
X158586600Y-102450900D01*
X148509600Y-93607100D02*
X149044200Y-94141700D01*
X157473500Y-93757100D02*
X156852100Y-93757100D01*
X158344900Y-94628500D02*
X157473500Y-93757100D01*
X157372100Y-104817100D02*
X157372100Y-103665400D01*
X158586600Y-102450900D02*
X158586600Y-94870200D01*
%TO.N,Net-(R2-Pad2)*%
X151902100Y-95027100D02*
X151472200Y-95027100D01*
X168245000Y-94319199D02*
X168245000Y-91902800D01*
X168245000Y-91902800D02*
X165572200Y-89230000D01*
X151472200Y-95027100D02*
X150624600Y-94179500D01*
X165572200Y-89230000D02*
X156800000Y-89230000D01*
X150624600Y-94179500D02*
X150624600Y-90120100D01*
X167487099Y-95077100D02*
X168245000Y-94319199D01*
X166512100Y-95077100D02*
X167487099Y-95077100D01*
%TO.N,Net-(R8-Pad2)*%
X150423800Y-98995600D02*
X150423800Y-98877200D01*
X161069200Y-96347100D02*
X159741900Y-95019800D01*
X161562100Y-96347100D02*
X161069200Y-96347100D01*
X151535300Y-100107100D02*
X150423800Y-98995600D01*
X151902100Y-100107100D02*
X151535300Y-100107100D01*
%TO.N,Net-(U1-Pad10)*%
X161562100Y-98887100D02*
X160954825Y-98887100D01*
X155209868Y-97812488D02*
X154185256Y-98837100D01*
X154185256Y-98837100D02*
X151902100Y-98837100D01*
X160954825Y-98887100D02*
X159592784Y-97525059D01*
%TO.N,Net-(U1-Pad6)*%
X154080300Y-96297100D02*
X154871000Y-97087800D01*
X167487099Y-100157100D02*
X167825000Y-99819199D01*
X167529900Y-98252100D02*
X164962100Y-98252100D01*
X167825000Y-98547200D02*
X167529900Y-98252100D01*
X151902100Y-96297100D02*
X154080300Y-96297100D01*
X164962100Y-98252100D02*
X164940000Y-98230000D01*
X167825000Y-99819199D02*
X167825000Y-98547200D01*
X166512100Y-100157100D02*
X167487099Y-100157100D01*
%TO.N,Net-(U3-Pad11)*%
X151902100Y-97567100D02*
X151377100Y-97567100D01*
X150592100Y-96782100D02*
X142987100Y-96782100D01*
X142987100Y-96782100D02*
X142352100Y-97417100D01*
X151377100Y-97567100D02*
X150592100Y-96782100D01*
%TO.N,Net-(U3-Pad8)*%
X148462000Y-100592000D02*
X149247100Y-101377100D01*
X142352100Y-99957100D02*
X142987000Y-100592000D01*
X142987000Y-100592000D02*
X148462000Y-100592000D01*
X149247100Y-101377100D02*
X151902100Y-101377100D01*
%TO.N,Net-(U3-Pad3)*%
X147302100Y-96147100D02*
X147769800Y-95679400D01*
X147769800Y-95679400D02*
X156234400Y-95679400D01*
X156234400Y-95679400D02*
X156852100Y-96297100D01*
%TD*%
M02*
