%TF.GenerationSoftware,KiCad,Pcbnew,8.0.7*%
%TF.CreationDate,2024-12-05T12:40:22+01:00*%
%TF.ProjectId,TAITO_PC030CM,54414954-4f5f-4504-9330-3330434d2e6b,rev?*%
%TF.SameCoordinates,Original*%
%TF.FileFunction,Soldermask,Top*%
%TF.FilePolarity,Negative*%
%FSLAX46Y46*%
G04 Gerber Fmt 4.6, Leading zero omitted, Abs format (unit mm)*
G04 Created by KiCad (PCBNEW 8.0.7) date 2024-12-05 12:40:22*
%MOMM*%
%LPD*%
G01*
G04 APERTURE LIST*
G04 Aperture macros list*
%AMRoundRect*
0 Rectangle with rounded corners*
0 $1 Rounding radius*
0 $2 $3 $4 $5 $6 $7 $8 $9 X,Y pos of 4 corners*
0 Add a 4 corners polygon primitive as box body*
4,1,4,$2,$3,$4,$5,$6,$7,$8,$9,$2,$3,0*
0 Add four circle primitives for the rounded corners*
1,1,$1+$1,$2,$3*
1,1,$1+$1,$4,$5*
1,1,$1+$1,$6,$7*
1,1,$1+$1,$8,$9*
0 Add four rect primitives between the rounded corners*
20,1,$1+$1,$2,$3,$4,$5,0*
20,1,$1+$1,$4,$5,$6,$7,0*
20,1,$1+$1,$6,$7,$8,$9,0*
20,1,$1+$1,$8,$9,$2,$3,0*%
G04 Aperture macros list end*
%ADD10RoundRect,0.250000X-1.000000X-0.650000X1.000000X-0.650000X1.000000X0.650000X-1.000000X0.650000X0*%
%ADD11RoundRect,0.250000X0.250000X0.475000X-0.250000X0.475000X-0.250000X-0.475000X0.250000X-0.475000X0*%
%ADD12RoundRect,0.250000X-0.262500X-0.450000X0.262500X-0.450000X0.262500X0.450000X-0.262500X0.450000X0*%
%ADD13RoundRect,0.250000X-0.250000X-0.475000X0.250000X-0.475000X0.250000X0.475000X-0.250000X0.475000X0*%
%ADD14RoundRect,0.250000X0.262500X0.450000X-0.262500X0.450000X-0.262500X-0.450000X0.262500X-0.450000X0*%
%ADD15RoundRect,0.250000X-0.362500X-1.425000X0.362500X-1.425000X0.362500X1.425000X-0.362500X1.425000X0*%
%ADD16R,1.700000X1.700000*%
%ADD17O,1.700000X1.700000*%
%ADD18RoundRect,0.250000X-1.425000X0.362500X-1.425000X-0.362500X1.425000X-0.362500X1.425000X0.362500X0*%
%ADD19RoundRect,0.250000X1.425000X-0.362500X1.425000X0.362500X-1.425000X0.362500X-1.425000X-0.362500X0*%
%ADD20RoundRect,0.250000X1.000000X0.650000X-1.000000X0.650000X-1.000000X-0.650000X1.000000X-0.650000X0*%
G04 APERTURE END LIST*
D10*
%TO.C,D1*%
X122392100Y-96327100D03*
X126392100Y-96327100D03*
%TD*%
D11*
%TO.C,C3*%
X160522100Y-91252100D03*
X158622100Y-91252100D03*
%TD*%
D12*
%TO.C,R2*%
X149499600Y-91222100D03*
X151324600Y-91222100D03*
%TD*%
D13*
%TO.C,C4*%
X162959600Y-87577100D03*
X164859600Y-87577100D03*
%TD*%
D14*
%TO.C,R4*%
X169644600Y-91222100D03*
X167819600Y-91222100D03*
%TD*%
D15*
%TO.C,R13*%
X129879600Y-91467100D03*
X135804600Y-91467100D03*
%TD*%
D13*
%TO.C,C6*%
X158989600Y-87577100D03*
X160889600Y-87577100D03*
%TD*%
D12*
%TO.C,R5*%
X138687100Y-87547100D03*
X140512100Y-87547100D03*
%TD*%
D10*
%TO.C,D2*%
X122334600Y-100547100D03*
X126334600Y-100547100D03*
%TD*%
%TO.C,ZD4*%
X141142100Y-100347100D03*
X145142100Y-100347100D03*
%TD*%
D16*
%TO.C,J1*%
X121812100Y-104817100D03*
D17*
X124352100Y-104817100D03*
X126892100Y-104817100D03*
X129432100Y-104817100D03*
X131972100Y-104817100D03*
X134512100Y-104817100D03*
X137052100Y-104817100D03*
X139592100Y-104817100D03*
X142132100Y-104817100D03*
X144672100Y-104817100D03*
X147212100Y-104817100D03*
X149752100Y-104817100D03*
X152292100Y-104817100D03*
X154832100Y-104817100D03*
X157372100Y-104817100D03*
X159912100Y-104817100D03*
X162452100Y-104817100D03*
X164992100Y-104817100D03*
X167532100Y-104817100D03*
X170072100Y-104817100D03*
%TD*%
D12*
%TO.C,R8*%
X154197100Y-95967100D03*
X156022100Y-95967100D03*
%TD*%
%TO.C,R16*%
X145067100Y-95967100D03*
X146892100Y-95967100D03*
%TD*%
D18*
%TO.C,R11*%
X136042100Y-95154600D03*
X136042100Y-101079600D03*
%TD*%
D12*
%TO.C,R17*%
X140502100Y-95967100D03*
X142327100Y-95967100D03*
%TD*%
%TO.C,R10*%
X167892100Y-95967100D03*
X169717100Y-95967100D03*
%TD*%
%TO.C,R7*%
X139309600Y-91222100D03*
X141134600Y-91222100D03*
%TD*%
D13*
%TO.C,C7*%
X133959600Y-87577100D03*
X135859600Y-87577100D03*
%TD*%
D12*
%TO.C,R20*%
X122472100Y-87147100D03*
X124297100Y-87147100D03*
%TD*%
%TO.C,R3*%
X163249600Y-91222100D03*
X165074600Y-91222100D03*
%TD*%
D13*
%TO.C,C8*%
X147059600Y-87577100D03*
X148959600Y-87577100D03*
%TD*%
D12*
%TO.C,R6*%
X142917100Y-87547100D03*
X144742100Y-87547100D03*
%TD*%
%TO.C,R15*%
X149632100Y-95967100D03*
X151457100Y-95967100D03*
%TD*%
%TO.C,R19*%
X154069600Y-91222100D03*
X155894600Y-91222100D03*
%TD*%
D10*
%TO.C,ZD3*%
X157650400Y-100347100D03*
X161650400Y-100347100D03*
%TD*%
%TO.C,ZD2*%
X149396300Y-100347100D03*
X153396300Y-100347100D03*
%TD*%
D15*
%TO.C,R14*%
X121312100Y-91467100D03*
X127237100Y-91467100D03*
%TD*%
D14*
%TO.C,R18*%
X160587100Y-95967100D03*
X158762100Y-95967100D03*
%TD*%
D11*
%TO.C,C2*%
X169639600Y-87577100D03*
X167739600Y-87577100D03*
%TD*%
D19*
%TO.C,R12*%
X131192100Y-101099600D03*
X131192100Y-95174600D03*
%TD*%
D14*
%TO.C,R1*%
X152609600Y-87547100D03*
X150784600Y-87547100D03*
%TD*%
D12*
%TO.C,R9*%
X163327100Y-95967100D03*
X165152100Y-95967100D03*
%TD*%
D20*
%TO.C,ZD1*%
X169859600Y-100347100D03*
X165859600Y-100347100D03*
%TD*%
D11*
%TO.C,C1*%
X156699600Y-87577100D03*
X154799600Y-87577100D03*
%TD*%
M02*
